<svg xmlns="http://www.w3.org/2000/svg" xmlns:xlink="http://www.w3.org/1999/xlink" viewBox="0 0 58.89600000000001 63.00000000000001" width="45" height="45" x="7.5" y="7.5" class="image-svg-letter" ><path xmlns="http://www.w3.org/2000/svg" transform="translate(0 63.00000000000001)" d="M18.58-49.32L18.58-58.75L27.36-63.00L27.36-45.14L17.14-33.41L26.93-21.82L26.93 0L18.58-4.68L18.58-16.78L11.09-24.84L8.42-23.11L8.42-10.51L0.14-16.27L0.14-27.22L4.03-31.46L0-36.00L0-46.30L8.57-50.76L8.57-41.47L10.01-39.53L18.58-49.32ZM32.11-22.46L41.11-32.90L30.96-46.73L30.96-63.00L39.82-58.39L39.82-49.10L48.60-39.53L49.97-40.90L49.97-50.98L58.32-46.51L58.18-36.07L54.58-32.33L58.90-26.86L58.90-16.27L49.97-11.59L49.97-23.04L47.45-25.20L40.39-18.29L40.39-5.83L32.11 0L32.11-22.46Z" fill="purple"/></svg>