<svg
    xmlns="http://www.w3.org/2000/svg"
    viewBox="0 0 100 100"
>
    <defs>
        <!-- 定义线性渐变 -->
        <linearGradient id="grad1" x1="0%" y1="0%" x2="100%" y2="100%">
            <stop offset="0%" style="stop-color:lightpink; stop-opacity:1" />
            <stop offset="45%" style="stop-color:blue; stop-opacity:1" />
            <stop offset="55%" style="stop-color:lightblue; stop-opacity:1" />
            <stop offset="100%" style="stop-color:purple; stop-opacity:1" />
        </linearGradient>
    </defs>
    <path
        d="M37.88 85L82.80 14.69L87.10 14.69L42.28 85L37.88 85ZM29.24 85L74.11 14.69L78.41 14.69L33.54 85L29.24 85ZM20.55 85L65.42 14.69L69.77 14.69L24.89 85L20.55 85ZM11.90 85L56.73 14.69L61.12 14.69L16.20 85L11.90 85ZM16.20 14.69L35.24 44.52L33.10 47.94L11.90 14.69L16.20 14.69ZM56.73 85L50.63 75.38L52.77 71.96L61.12 85L56.73 85ZM24.89 14.69L39.59 37.73L37.44 41.10L20.60 14.69L24.89 14.69ZM65.47 85L54.97 68.54L57.12 65.18L69.77 85L65.47 85ZM33.58 14.69L43.94 30.90L41.79 34.32L29.24 14.69L33.58 14.69ZM74.11 85L59.27 61.76L61.46 58.34L78.46 85L74.11 85ZM42.28 14.69L48.28 24.11L46.08 27.53L37.88 14.69L42.28 14.69ZM82.80 85L63.61 54.97L65.81 51.60L87.10 85L82.80 85Z"
        fill="url(#grad1)" />
</svg>